<?xml version="1.0" standalone="no"?>
<!DOCTYPE svg PUBLIC "-//W3C//DTD SVG 20010904//EN"
 "http://www.w3.org/TR/2001/REC-SVG-20010904/DTD/svg10.dtd">
<svg version="1.0" xmlns="http://www.w3.org/2000/svg"
 width="260.000000pt" height="260.000000pt" viewBox="0 0 260.000000 260.000000"
 preserveAspectRatio="xMidYMid meet">
<metadata>
Created by potrace 1.11, written by Peter Selinger 2001-2013
</metadata>
<g transform="translate(0.000000,260.000000) scale(0.100000,-0.100000)"
fill="#000000" stroke="none">
<path d="M1094 1881 c4 -6 2 -11 -4 -11 -6 0 -9 -3 -7 -7 3 -5 8 -29 11 -56 5
-37 3 -49 -9 -53 -11 -4 -12 -11 -5 -24 5 -9 6 -20 3 -24 -4 -4 -7 -19 -7 -34
-1 -15 -11 -40 -22 -55 -22 -28 -54 -37 -54 -15 0 6 -14 -3 -31 -20 -40 -41
-65 -42 -72 -2 -4 17 -11 30 -17 30 -9 0 -11 -5 -10 -25 1 -15 -31 -62 -50
-75 -52 -36 -51 -32 -20 -78 16 -24 28 -55 28 -70 0 -15 1 -31 2 -37 7 -30 -1
-45 -25 -45 -24 0 -25 -2 -21 -47 2 -27 7 -56 11 -66 4 -10 5 -21 1 -24 -3 -3
-2 -11 4 -18 12 -15 15 -100 5 -150 -15 -77 -10 -101 20 -109 28 -7 89 30 78
47 -3 6 -2 7 4 4 5 -3 20 1 32 9 32 23 82 95 74 107 -3 5 -2 7 4 4 6 -4 18 0
29 7 10 8 24 11 31 9 8 -3 13 -2 12 3 -1 5 3 22 9 37 7 16 12 34 12 41 0 22
52 68 72 63 10 -3 20 -2 23 3 8 13 132 -11 160 -30 6 -4 22 -10 38 -14 15 -3
27 -11 27 -16 0 -6 7 -10 15 -10 8 0 15 -4 15 -10 0 -5 7 -10 15 -10 8 0 15
-4 15 -8 0 -5 17 -18 38 -30 21 -11 53 -41 71 -66 17 -25 42 -48 54 -51 12 -2
70 -6 128 -8 58 -2 111 -7 117 -11 14 -8 52 28 52 49 0 9 11 20 25 27 13 6 22
15 19 19 -3 5 0 9 5 9 35 0 -22 173 -60 185 -9 3 -19 15 -22 25 -8 31 -46 24
-96 -15 -24 -19 -47 -35 -52 -35 -4 0 -28 -16 -53 -35 l-46 -35 -43 21 c-69
36 -129 79 -192 142 -53 53 -60 63 -58 96 2 27 -4 44 -22 64 -27 29 -31 47
-14 64 12 12 4 33 -12 33 -5 0 -17 -9 -26 -20 -24 -28 -41 -25 -61 9 -9 17
-25 32 -35 35 -25 6 -66 106 -73 179 -8 92 -18 130 -33 135 -8 3 -11 0 -7 -7z"/>
</g>
</svg>
